<?xml version="1.0" standalone="no"?>
<svg viewBox="0 0 200 200" xmlns="http://www.w3.org/2000/svg">
  <path fill="#FF0066" d="M36.4,-52C46.5,-50.2,53.5,-38.9,59.3,-26.9C65,-14.9,69.5,-2.1,64.6,7C59.8,16.2,45.6,21.7,36,29.1C26.3,36.4,21.2,45.6,11.3,57C1.4,68.3,-13.3,81.8,-21.9,77.8C-30.5,73.7,-33,52.3,-37.5,37.7C-42,23.2,-48.6,15.5,-56.8,3.9C-65.1,-7.7,-75,-23.2,-69.8,-30.8C-64.6,-38.3,-44.3,-37.8,-30.1,-37.7C-16,-37.6,-8,-38,2.6,-42C13.2,-46.1,26.3,-53.7,36.4,-52Z" transform="translate(100 100)" />
</svg>
