<?xml version="1.0" standalone="no"?>
<!DOCTYPE svg PUBLIC "-//W3C//DTD SVG 20010904//EN"
 "http://www.w3.org/TR/2001/REC-SVG-20010904/DTD/svg10.dtd">
<svg version="1.0" xmlns="http://www.w3.org/2000/svg"
 width="500.000000pt" height="500.000000pt" viewBox="0 0 500.000000 500.000000"
 preserveAspectRatio="xMidYMid meet">

<g transform="translate(0.000000,500.000000) scale(0.100000,-0.100000)"
fill="#000000" stroke="none">
<path d="M2774 2924 c-38 -19 -64 -62 -64 -108 0 -29 -5 -39 -25 -48 -31 -14
-32 -26 -2 -30 21 -3 22 -7 25 -118 5 -163 -4 -235 -33 -268 -23 -26 -24 -26
-37 -9 -13 17 -15 17 -27 3 -7 -9 -10 -23 -7 -32 9 -23 71 -12 103 18 50 47
57 72 61 246 l4 162 34 0 c19 0 34 5 34 10 0 6 -16 10 -35 10 l-36 0 3 61 c3
53 7 65 28 81 31 23 56 16 64 -18 8 -32 30 -26 34 9 3 21 -2 29 -23 37 -36 14
-65 12 -101 -6z"/>
<path d="M2923 2933 c-20 -8 -15 -23 7 -23 19 0 20 -7 20 -215 l0 -215 25 -16
c14 -9 32 -13 45 -9 24 7 26 23 5 31 -13 5 -15 39 -15 218 0 152 -3 215 -12
224 -12 12 -52 15 -75 5z"/>
<path d="M716 2894 c-10 -26 -7 -32 24 -43 l30 -10 0 -156 0 -157 -30 -11
c-19 -7 -28 -17 -25 -25 3 -8 5 -18 5 -23 0 -5 45 -9 100 -9 98 0 100 0 100
24 0 18 -8 25 -32 32 l-33 10 -3 167 -2 167 48 0 c56 0 78 -17 88 -68 8 -37
-11 -89 -37 -102 -10 -6 -29 -10 -43 -10 -21 0 -26 -5 -26 -25 0 -22 4 -25 33
-25 56 0 105 19 132 52 24 29 27 38 23 95 -7 109 -49 133 -234 133 -93 0 -113
-3 -118 -16z"/>
<path d="M1825 2806 c-8 -18 -25 -37 -39 -44 -29 -13 -26 -42 5 -42 17 0 19
-9 19 -110 0 -98 2 -111 21 -129 26 -24 63 -31 104 -20 43 12 62 34 46 53 -10
12 -16 12 -42 -2 -29 -16 -31 -16 -44 2 -11 14 -15 47 -15 113 l0 93 39 0 c26
0 41 5 45 16 9 24 9 24 -39 24 -44 0 -45 0 -45 34 0 26 -5 35 -21 39 -16 4
-24 -1 -34 -27z"/>
<path d="M1240 2761 c-49 -10 -75 -29 -99 -72 -41 -72 -18 -174 48 -212 42
-25 141 -26 179 -1 37 24 50 42 63 88 22 81 -24 177 -94 191 -18 4 -39 8 -47
9 -8 2 -31 0 -50 -3z m92 -62 c24 -28 32 -96 16 -144 -25 -77 -103 -83 -134
-10 -27 65 -11 148 33 174 24 14 64 5 85 -20z"/>
<path d="M1590 2763 c-48 -7 -78 -25 -90 -52 -21 -52 8 -90 108 -140 47 -24
56 -53 21 -71 -34 -19 -77 -3 -84 31 -5 22 -12 29 -31 29 -21 0 -24 -4 -24
-40 0 -35 4 -42 28 -51 15 -6 53 -11 86 -11 66 0 105 21 121 66 15 43 -10 76
-88 116 -73 38 -85 62 -42 82 33 15 75 -3 75 -32 0 -21 8 -24 34 -14 26 10 21
63 -6 73 -34 12 -80 18 -108 14z"/>
<path d="M2147 2759 c-72 -12 -127 -76 -127 -148 0 -54 35 -116 77 -136 48
-23 138 -24 185 -1 32 15 36 21 27 37 -9 18 -12 18 -39 4 -48 -25 -97 -19
-131 14 -17 17 -29 40 -29 55 0 25 0 25 103 28 l102 3 3 29 c2 15 1 39 -2 52
-12 46 -92 76 -169 63z m71 -45 c12 -8 22 -26 22 -40 0 -23 -3 -24 -65 -24
-36 0 -65 2 -65 5 0 17 26 55 44 63 29 15 38 14 64 -4z"/>
<path d="M2525 2760 c-16 -3 -59 -4 -94 -2 -58 5 -64 3 -58 -12 4 -10 7 -20 7
-22 0 -2 7 -4 15 -4 12 0 15 -18 15 -104 0 -96 -2 -105 -20 -111 -11 -4 -20
-15 -20 -26 0 -18 6 -20 82 -17 69 3 83 6 86 20 2 12 -5 19 -22 24 -26 6 -26
7 -26 104 0 105 3 110 56 110 17 0 27 -8 34 -26 7 -18 15 -24 26 -20 9 3 18 6
20 6 10 0 3 71 -8 74 -33 10 -66 13 -93 6z"/>
<path d="M3098 2763 c-32 -5 -38 -23 -8 -23 19 0 20 -7 20 -106 0 -116 6 -136
50 -159 48 -25 88 -19 125 18 l33 33 -5 -61 c-7 -75 -21 -106 -56 -123 -21
-10 -35 -11 -62 -2 -38 12 -52 39 -36 69 20 37 4 44 -29 11 -27 -27 -25 -62 6
-91 35 -33 138 -35 181 -3 44 33 52 72 52 261 1 178 -1 186 -41 175 -16 -4
-18 -17 -18 -96 0 -102 -17 -151 -61 -175 -24 -13 -29 -13 -53 2 -26 17 -26
20 -26 132 0 90 -3 117 -16 129 -8 9 -18 15 -22 15 -4 -1 -19 -4 -34 -6z"/>
<path d="M1914 2364 c3 -9 6 -42 6 -75 0 -32 3 -59 8 -59 4 0 6 34 4 75 -2 43
-8 75 -14 75 -6 0 -7 -7 -4 -16z"/>
<path d="M2340 2348 c5 -86 1 -108 -20 -108 -16 0 -20 7 -20 35 0 29 4 35 23
36 17 1 18 2 4 6 -26 7 -47 -15 -47 -48 0 -29 13 -37 65 -37 19 0 20 5 17 74
-2 41 -8 74 -14 74 -5 0 -9 -15 -8 -32z"/>
<path d="M1760 2360 c0 -5 5 -10 11 -10 5 0 7 5 4 10 -3 6 -8 10 -11 10 -2 0
-4 -4 -4 -10z"/>
<path d="M2395 2360 c-3 -5 -1 -10 4 -10 6 0 11 5 11 10 0 6 -2 10 -4 10 -3 0
-8 -4 -11 -10z"/>
<path d="M1466 2305 c-3 -9 4 -21 19 -31 32 -21 32 -38 -1 -31 -16 3 -22 1
-16 -5 15 -15 56 -5 60 14 2 11 -6 22 -23 30 -15 7 -24 17 -21 25 3 7 1 13 -3
13 -5 0 -11 -7 -15 -15z"/>
<path d="M1557 2313 c-11 -11 -8 -58 5 -71 36 -36 93 11 69 57 -7 11 -17 21
-23 21 -7 0 -7 -5 2 -14 18 -23 8 -61 -16 -64 -25 -4 -39 31 -23 60 9 17 0 25
-14 11z"/>
<path d="M1661 2298 c-4 -12 -6 -30 -3 -40 5 -19 42 -34 64 -25 7 3 1 6 -14 6
-31 1 -45 30 -28 61 7 14 8 20 0 20 -6 0 -14 -10 -19 -22z"/>
<path d="M1715 2310 c3 -5 8 -10 11 -10 2 0 4 5 4 10 0 6 -5 10 -11 10 -5 0
-7 -4 -4 -10z"/>
<path d="M1760 2275 c0 -25 5 -45 10 -45 6 0 10 20 10 45 0 25 -4 45 -10 45
-5 0 -10 -20 -10 -45z"/>
<path d="M1808 2294 c-16 -35 0 -59 43 -60 l34 -2 -4 44 c-4 55 -21 58 -21 3
0 -33 -3 -40 -17 -37 -22 4 -29 44 -13 64 9 10 9 14 1 14 -6 0 -17 -12 -23
-26z"/>
<path d="M2020 2274 c0 -54 18 -59 22 -7 2 27 8 39 21 41 14 3 17 -4 17 -37 0
-23 5 -41 10 -41 6 0 10 18 10 40 0 28 4 40 14 40 16 0 26 -21 26 -56 0 -13 4
-24 8 -24 5 0 6 19 3 43 l-6 42 -62 1 -63 2 0 -44z"/>
<path d="M2192 2308 c-7 -7 -12 -21 -12 -33 0 -30 19 -45 55 -44 l30 1 -30 7
c-33 7 -46 41 -25 67 15 17 -1 19 -18 2z"/>
<path d="M2246 2308 c4 -6 -2 -18 -12 -25 -19 -14 -19 -15 1 -11 21 3 35 48
15 48 -6 0 -8 -5 -4 -12z"/>
<path d="M2398 2283 c5 -59 10 -63 11 -10 1 26 -3 47 -7 47 -4 0 -6 -17 -4
-37z"/>
<path d="M2451 2306 c-7 -8 -11 -27 -9 -43 3 -25 7 -28 43 -30 l40 -2 -3 45
c-5 54 -27 60 -27 7 0 -27 -5 -38 -17 -41 -19 -4 -28 23 -16 56 9 26 5 28 -11
8z"/>
</g>
</svg>
